<svg width="57" height="57" viewBox="0 0 57 57" fill="none" xmlns="http://www.w3.org/2000/svg">
<path d="M28.5 32.0625C36.3701 32.0625 42.75 25.6826 42.75 17.8125C42.75 9.94244 36.3701 3.5625 28.5 3.5625C20.6299 3.5625 14.25 9.94244 14.25 17.8125C14.25 25.6826 20.6299 32.0625 28.5 32.0625Z" stroke="#06038D" stroke-width="3.5625" stroke-linecap="round" stroke-linejoin="round"/>
<path d="M15.9923 25.3633L5.34375 44.5318L15.0137 44.485C15.3235 44.4834 15.6284 44.5627 15.8982 44.715C16.1681 44.8673 16.3935 45.0873 16.5523 45.3534L21.375 53.438L31.2086 31.8047" stroke="#06038D" stroke-width="3.5625" stroke-linecap="round" stroke-linejoin="round"/>
<path d="M40.8062 24.9375L51.6562 44.5312L41.9863 44.4845C41.6765 44.4829 41.3716 44.5622 41.1018 44.7145C40.832 44.8668 40.6065 45.0868 40.4477 45.3529L35.625 53.4375L28.5 37.7625" stroke="#06038D" stroke-width="3.5625" stroke-linecap="round" stroke-linejoin="round"/>
<path d="M28.5 24.9375C32.435 24.9375 35.625 21.7475 35.625 17.8125C35.625 13.8775 32.435 10.6875 28.5 10.6875C24.565 10.6875 21.375 13.8775 21.375 17.8125C21.375 21.7475 24.565 24.9375 28.5 24.9375Z" stroke="#06038D" stroke-width="3.5625" stroke-linecap="round" stroke-linejoin="round"/>
</svg>
