<svg width="49" height="49" viewBox="0 0 49 49" fill="none" xmlns="http://www.w3.org/2000/svg">
<path d="M28.5846 4.08398H12.2513C11.1683 4.08398 10.1297 4.51419 9.36395 5.27996C8.59818 6.04574 8.16797 7.08435 8.16797 8.16732V40.834C8.16797 41.9169 8.59818 42.9556 9.36395 43.7213C10.1297 44.4871 11.1683 44.9173 12.2513 44.9173H36.7513C37.8343 44.9173 38.8729 44.4871 39.6387 43.7213C40.4044 42.9556 40.8346 41.9169 40.8346 40.834V16.334L28.5846 4.08398Z" stroke="#06038D" stroke-width="4.08333" stroke-linecap="round" stroke-linejoin="round"/>
<path d="M28.582 4.08398V16.334H40.832" stroke="#06038D" stroke-width="4.08333" stroke-linecap="round" stroke-linejoin="round"/>
<path d="M32.6654 26.541H16.332" stroke="#06038D" stroke-width="4.08333" stroke-linecap="round" stroke-linejoin="round"/>
<path d="M32.6654 34.709H16.332" stroke="#06038D" stroke-width="4.08333" stroke-linecap="round" stroke-linejoin="round"/>
<path d="M20.4154 18.375H18.3737H16.332" stroke="#06038D" stroke-width="4.08333" stroke-linecap="round" stroke-linejoin="round"/>
</svg>
